# AST/ASF file generated using VICON BodyLanguage
# -----------------------------------------------
:version 1.10
:name VICON
:units
  mass 1.0
  length 0.45
  angle deg
:documentation
   .ast/.asf automatically generated from VICON data using
   VICON BodyBuilder and BodyLanguage model FoxedUp or BRILLIANT.MOD
:root
   order TX TY TZ RX RY RZ
   axis XYZ
   position 0 0 0  
   orientation 0 0 0 
:bonedata
  begin
     id 1 
     name lhipjoint
     direction 0.576517 -0.752066 0.319413 
     length 2.45433 
     axis 0 0 0  XYZ
  end
  begin
     id 2 
     name lfemur
     direction 0.34202 -0.939693 0  
     length 7.54459  
     axis 0 0 20  XYZ
    dof rx ry rz
    limits (-160.0 20.0)
           (-70.0 70.0)
           (-60.0 70.0)
  end
  begin
     id 3 
     name ltibia
     direction 0.34202 -0.939693 0   
     length 7.73986   
     axis 0 0 20   XYZ
    dof rx
    limits (-10.0 170.0)
  end
  begin
     id 4 
     name lfoot
     direction 0.090693 -0.249177 0.964202   
     length 2.28437   
     axis -90 7.62852e-016 20   XYZ
    dof rx rz
    limits (-45.0 90.0)
           (-70.0 20.0)
  end
  begin
     id 5 
     name ltoes
     direction 1.5356e-011 -4.21928e-011 1   
     length 1.14243   
     axis -90 7.62852e-016 20   XYZ
    dof rx
    limits (-90.0 20.0)
  end
  begin
     id 6 
     name rhipjoint
     direction -0.573937 -0.753736 0.320122   
     length 2.44889  
     axis 0 0 0  XYZ 
  end
  begin
     id 7 
     name rfemur
     direction -0.34202 -0.939693 0   
     length 7.50166   
     axis 0 0 -20   XYZ
    dof rx ry rz
    limits (-160.0 20.0)
           (-70.0 70.0)
           (-70.0 60.0)
  end
  begin
     id 8 
     name rtibia
     direction -0.34202 -0.939693 0   
     length 7.54266   
     axis 0 0 -20   XYZ
    dof rx
    limits (-10.0 170.0)
 end
 begin
     id 9 
     name rfoot
     direction -0.114017 -0.31326 0.942798   
     length 2.34212  
     axis -90 -7.62852e-016 -20   XYZ
    dof rx rz
    limits (-45.0 90.0)
           (-20.0 70.0)
  end
  begin
     id 10 
     name rtoes
     direction -1.53557e-011 -4.21867e-011 1   
     length 1.16246   
     axis -90 -7.62852e-016 -20   XYZ
    dof rx
    limits (-90.0 20.0)
  end
  begin
     id 11 
     name lowerback
     direction -0.0228371 0.999155 -0.034167   
     length 2.0537   
     axis 0 0 0   XYZ
    dof rx ry rz
    limits (-20.0 45.0)
           (-30.0 30.0)
           (-30.0 30.0)
  end
  begin
     id 12 
     name upperback
     direction 0.0198981 0.999794 0.00389455   
     length 2.05302   
     axis 0 0 0   XYZ
    dof rx ry rz
    limits (-20.0 45.0)
           (-30.0 30.0)
           (-30.0 30.0)
  end
  begin
     id 13 
     name thorax
     direction 0.0304566 0.99935 0.0192987   
     length 2.05315   
     axis 0 0 0   XYZ
    dof rx ry rz
    limits (-20.0 45.0)
           (-30.0 30.0)
           (-30.0 30.0)
  end
  begin
     id 14 
     name lowerneck
     direction -0.0196762 0.99417 0.106017   
     length 1.82056   
     axis 0 0 0   XYZ
    dof rx ry rz
    limits (-20.0 45.0)
           (-30.0 30.0)
           (-30.0 30.0)
  end
  begin
     id 15 
     name upperneck
     direction 0.00517787 0.9802 -0.197944   
     length 1.83835   
     axis 0 0 0   XYZ
    dof rx ry rz
    limits (-20.0 45.0)
           (-30.0 30.0)
           (-30.0 30.0)
  end
  begin
     id 16
     name head
     direction 0.00211419 0.996945 -0.078081  
     length 1.85629  
     axis 0 0 0   XYZ
    dof rx ry rz
    limits (-20.0 45.0)
           (-30.0 30.0)
           (-30.0 30.0)
  end
  begin
     id 17 
     name lclavicle
     direction 0.930001 0.365811 -0.0357824  
     length 3.81961  
     axis 0 0 0   XYZ
    dof ry rz
    limits (-20.0 10.0)
           (0.0 20.0)
  end
  begin
     id 18 
     name lhumerus
     direction 1 -4.48968e-011 -3.06644e-027   
     length 5.14507   
     axis 180 -30 -90   XYZ
    dof rx ry rz
    limits (-60.0 90.0)
           (-90.0 90.0)
           (-90.0 90.0)
  end
  begin
     id 19
     name lradius
     direction 1 -4.48965e-011 9.06925e-028   
     length 3.50646   
     axis 180 -30 -90   XYZ
    dof rx
    limits (-10.0 170.0)
  end
  begin
     id 20
     name lwrist
     direction 1 -4.48957e-011 1.03922e-027   
     length 1.75323   
     axis -2.56395e-016 90 90   XYZ
    dof ry
    limits (-180.0 0.0)
 end
  begin
     id 21 
     name lhand
     direction 1 -4.48967e-011 2.08017e-027   
     length 0.629969   
     axis -1.32723e-015 90 90   XYZ
    dof rx rz
    limits (-90.0 90.0)
           (-45.0 45.0)
  end
  begin
     id 22 
     name lfingers
     direction 1 -4.49089e-011 4.20095e-027   
     length 0.507897   
     axis -2.6545e-015 90 90   XYZ
    dof rx
    limits (0.0 90.0)
  end
  begin
     id 23
     name lthumb
     direction 0.707107 -6.35001e-011 0.707107   
     length 0.729241   
     axis -90 45 5.05613e-014   XYZ
    dof rx rz
    limits (-45.0 45.0)
           (-45.0 45.0)
  end
  begin
     id 24 
     name rclavicle
     direction -0.881882 0.464123 -0.0829113   
     length 3.47515  
     axis 0 0 0   XYZ 
    dof ry rz
    limits (-10.0 20.0)
           (-20.0 0.0)
  end
  begin
     id 25 
     name rhumerus
     direction -1 -4.48961e-011 -1.55672e-027  
     length 5.232   
     axis 180 30 90   XYZ
    dof rx ry rz
    limits (-90.0 60.0)
           (-90.0 90.0)
           (-90.0 90.0)
  end
  begin
     id 26 
     name rradius
     direction -1 -4.48963e-011 6.18178e-029   
     length 3.65641   
     axis 180 30 90   XYZ
    dof rx
    limits (-10.0 170.0)
  end
  begin
     id 27 
     name rwrist
     direction -1 -4.48982e-011 1.04136e-027   
     length 1.8282   
     axis -2.56395e-016 -90 -90   XYZ
    dof ry
    limits (-180.0 0.0)
  end
  begin
     id 28
     name rhand
     direction -1 -4.48929e-011 2.07378e-027   
     length 0.656807   
     axis -1.32723e-015 -90 -90   XYZ
    dof rx rz
    limits (-90.0 90.0)
           (-45.0 45.0)
  end
  begin
     id 29
     name rfingers
     direction -1 -4.489e-011 4.13816e-027   
     length 0.529535   
     axis -2.6545e-015 -90 -90   XYZ
    dof rx
    limits (0.0 90.0)
  end
  begin
     id 30
     name rthumb
     direction -0.707107 -6.34843e-011 0.707107   
     length 0.760309   
     axis -90 -45 -5.05613e-014   XYZ
    dof rx rz
    limits (-45.0 45.0)
           (-45.0 45.0)
  end
:hierarchy
  begin
    root lhipjoint rhipjoint lowerback
    lhipjoint lfemur
    lfemur ltibia
    ltibia lfoot
    lfoot ltoes
    rhipjoint rfemur
    rfemur rtibia
    rtibia rfoot
    rfoot rtoes
    lowerback upperback
    upperback thorax
    thorax lowerneck lclavicle rclavicle
    lowerneck upperneck
    upperneck head
    lclavicle lhumerus
    lhumerus lradius
    lradius lwrist
    lwrist lhand lthumb
    lhand lfingers
    rclavicle rhumerus
    rhumerus rradius
    rradius rwrist
    rwrist rhand rthumb
    rhand rfingers
  end

#!OML:ASF H:\ManfredETheater\Project 1\Capture day 1\Session 1\subject.ASF
:FULLY-SPECIFIED
:DEGREES
16
root 3.18474 15.1686 39.3125 -149.351 10.4975 -174.238
lowerback 38.7872 -0.417906 6.09541
upperback 6.27695 4.47877 3.03033
thorax -11.843 2.62628 -1.97876
lowerneck -12.3134 -0.338452 -0.760156
upperneck -3.39468 0.574467 -10.4604
head 1.09298 0.449516 -3.24374
rclavicle -3.97569e-014 7.15625e-015
rhumerus -13.8568 6.36218 -81.1568
rradius 70.8824
rwrist -9.78433
rhand -21.9855 -9.17679
rfingers 7.12502
rthumb 4.42276 -39.1106
lclavicle -3.97569e-014 7.15625e-015
lhumerus -26.5117 -0.662876 87.2594
lradius 74.1679
lwrist 6.1779
lhand -32.0429 -5.6585
lfingers 7.12502
lthumb -5.29013 24.2555
rfemur -55.1173 -14.4714 34.0999
rtibia 70.8998
rfoot -30.6736 -6.36444
rtoes -37.592
lfemur -77.0967 8.05328 -18.6252
ltibia 98.0921
lfoot -17.6454 -6.31694
ltoes -0.60489
17
root 3.19117 15.1135 38.9639 -149.57 10.7769 -174.075
lowerback 39.1477 -0.39861 6.14507
upperback 6.57314 4.58837 2.81776
thorax -11.6012 2.71756 -2.27959
lowerneck -12.2829 -0.383409 -0.670508
upperneck -3.42233 0.502045 -10.5123
head 1.07604 0.415171 -3.28179
rclavicle 2.38542e-014 -3.97569e-016
rhumerus -12.5039 6.86124 -81.1776
rradius 71.7639
rwrist -9.58612
rhand -22.0081 -8.90678
rfingers 7.12502
rthumb 4.40094 -38.8411
lclavicle 2.38542e-014 -3.97569e-016
lhumerus -26.2138 0.171976 86.7384
lradius 73.7315
lwrist 6.25878
lhand -32.1764 -5.77257
lfingers 7.12502
lthumb -5.41909 24.1381
rfemur -53.5946 -14.422 33.3737
rtibia 71.4691
rfoot -30.8528 -6.67778
rtoes -38.7061
lfemur -79.78 8.27547 -18.8991
ltibia 97.3406
lfoot -17.9263 -6.55667
ltoes -1.44501
18
root 3.19755 15.0599 38.6101 -149.784 11.0385 -173.901
lowerback 39.4663 -0.390523 6.20608
upperback 6.85898 4.68514 2.60734
thorax -11.3553 2.80354 -2.57666
lowerneck -12.2137 -0.416996 -0.589246
upperneck -3.43471 0.442452 -10.5625
head 1.05787 0.38626 -3.31681
rclavicle -8.11041e-014 -4.13472e-014
rhumerus -11.1444 7.42018 -81.1745
rradius 72.6289
rwrist -9.38947
rhand -22.0527 -8.61011
rfingers 7.12502
rthumb 4.35791 -38.5453
lclavicle -8.11041e-014 -4.13472e-014
lhumerus -25.945 1.00865 86.2171
lradius 73.4011
lwrist 6.16305
lhand -32.3047 -5.87735
lfingers 7.12502
lthumb -5.54293 24.0302
rfemur -51.9579 -14.3427 32.6214
rtibia 71.875
rfoot -31.054 -6.9537
rtoes -39.9142
lfemur -82.29 8.44504 -19.1756
ltibia 96.2064
lfoot -18.0931 -6.78561
ltoes -2.26728
19
root 3.20403 15.0054 38.2514 -149.969 11.2793 -173.718
lowerback 39.7121 -0.387868 6.27272
upperback 7.13464 4.76875 2.39977
thorax -11.0959 2.88377 -2.86503
lowerneck -12.1079 -0.440697 -0.516289
upperneck -3.43372 0.393259 -10.6024
head 1.03797 0.361621 -3.34588
rclavicle -3.73715e-014 -2.14687e-014
rhumerus -9.77062 8.02 -81.1592
rradius 73.474
rwrist -9.19605
rhand -22.1215 -8.36511
rfingers 7.12502
rthumb 4.29144 -38.3016
lclavicle -3.73715e-014 -2.14687e-014
lhumerus -25.6975 1.84551 85.6987
lradius 73.1836
lwrist 5.90815
lhand -32.3831 -5.86735
lfingers 7.12502
lthumb -5.61862 24.0382
rfemur -50.2328 -14.2155 31.8468
rtibia 72.1118
rfoot -31.2813 -7.22447
rtoes -41.1647
lfemur -84.6388 8.5607 -19.4524
ltibia 94.7172
lfoot -18.1643 -6.98916
ltoes -3.04769
